<svg xmlns="http://www.w3.org/2000/svg" viewBox="0 0 600 390"><defs><radialGradient id="b"><stop stop-color="#0b3c31"/><stop offset="1" stop-color="#061018"/></radialGradient><filter id="g"><feGaussianBlur stdDeviation="6" result="x"/><feMerge><feMergeNode in="x"/><feMergeNode in="SourceGraphic"/></feMerge></filter></defs><rect width="600" height="390" rx="24" fill="url(#b)"/><g stroke="#00FFFF" stroke-width="2" opacity=".5"><path d="M80 70l100 55M520 70l-100 55M70 310l120-55M530 310l-120-55"/><circle cx="80" cy="70" r="6" fill="#39FF14"/><circle cx="520" cy="70" r="6" fill="#39FF14"/><circle cx="70" cy="310" r="6" fill="#39FF14"/><circle cx="530" cy="310" r="6" fill="#39FF14"/></g><g filter="url(#g)"><circle cx="300" cy="190" r="105" fill="#07151a" stroke="#39FF14" stroke-width="4"/><path d="M247 148c-27-34 16-67 47-43 25-31 73-3 56 34 39 6 40 55 10 67 18 37-28 68-58 42-31 28-77-7-55-42-39-14-34-58 0-58z" fill="none" stroke="#00FFFF" stroke-width="7"/><path d="M300 110v155M252 154h96M260 213h80" stroke="#39FF14" stroke-width="3" opacity=".7"/></g><g fill="#0d2a24" stroke="#39FF14"><rect x="35" y="110" width="110" height="70" rx="12"/><rect x="455" y="110" width="110" height="70" rx="12"/><rect x="55" y="235" width="115" height="70" rx="12"/><rect x="430" y="235" width="115" height="70" rx="12"/></g><g fill="#caffc2" font-family="Arial" font-size="13"><text x="52" y="137">DISEASE</text><text x="52" y="158">CLASSIFIER</text><text x="474" y="137">CONFIDENCE</text><text x="474" y="158">ENGINE</text><text x="73" y="263">LEAF</text><text x="73" y="284">FEATURES</text><text x="448" y="263">RISK</text><text x="448" y="284">ANALYSIS</text></g></svg>