<svg xmlns="http://www.w3.org/2000/svg" viewBox="0 0 900 260"><defs><filter id="g"><feGaussianBlur stdDeviation="3" result="b"/><feMerge><feMergeNode in="b"/><feMergeNode in="SourceGraphic"/></feMerge></filter><linearGradient id="lg" x1="0" x2="1"><stop stop-color="#39FF14"/><stop offset="1" stop-color="#00FFFF"/></linearGradient></defs><g fill="none" stroke="url(#lg)" stroke-width="2" opacity=".72" filter="url(#g)"><path d="M720 0c0 42-8 63-24 85-18 24-34 36-49 55-13 16-19 38-20 72"/><path d="M720 48c38 18 55 36 67 68 9 25 31 37 65 43"/><path d="M702 86c-37 10-57 30-72 60-11 22-33 38-68 48"/><path d="M746 70c-8 29 1 52 27 69 19 13 28 32 28 58"/><path d="M671 118c-29-2-51 8-65 30-11 18-31 27-59 28"/><path d="M794 118c31-7 57 1 78 23"/></g><g fill="#39FF14" opacity=".75"><circle cx="720" cy="48" r="3"/><circle cx="696" cy="85" r="2"/><circle cx="746" cy="70" r="2"/><circle cx="671" cy="118" r="2"/><circle cx="794" cy="118" r="2"/><circle cx="630" cy="146" r="2"/></g></svg>